<?xml version="1.0" encoding="UTF-8"?>
<svg width="207px" height="62px" viewBox="0 0 207 62" version="1.1" xmlns="http://www.w3.org/2000/svg" xmlns:xlink="http://www.w3.org/1999/xlink">
  <defs>
    <path d="M9.93650014,36.744 L0.891500139,36.744 C0.980833919,39.0666783 1.505662,40.9984923 2.46600014,42.5395 C3.42633827,44.0805077 4.65465932,45.3199953 6.15100014,46.258 C7.64734095,47.1960047 9.35582387,47.865998 11.2765001,48.268 C13.1971764,48.670002 15.1624901,48.871 17.1725001,48.871 C19.1378433,48.871 21.0696573,48.6811686 22.9680001,48.3015 C24.866343,47.9218314 26.5524928,47.2630047 28.0265001,46.325 C29.5005075,45.3869953 30.6953289,44.1475077 31.6110001,42.6065 C32.5266714,41.0654923 32.9845001,39.1560114 32.9845001,36.878 C32.9845001,35.269992 32.6718366,33.9188388 32.0465001,32.8245 C31.4211637,31.7301612 30.5948386,30.8145037 29.5675001,30.0775 C28.5401617,29.3404963 27.3676734,28.7486689 26.0500001,28.302 C24.7323269,27.8553311 23.3811737,27.4756682 21.9965001,27.163 C20.6564934,26.8503318 19.3388399,26.5600013 18.0435001,26.292 C16.7481603,26.0239987 15.5980052,25.7225017 14.5930001,25.3875 C13.5879951,25.0524983 12.7728366,24.6170027 12.1475001,24.081 C11.5221637,23.5449973 11.2095001,22.8526709 11.2095001,22.004 C11.2095001,21.2893298 11.388165,20.7198355 11.7455001,20.2955 C12.1028353,19.8711645 12.5383309,19.5473344 13.0520001,19.324 C13.5656694,19.1006655 14.1351637,18.9555003 14.7605001,18.8885 C15.3858366,18.8214997 15.9664975,18.788 16.5025001,18.788 C18.199842,18.788 19.6738272,19.1118301 20.9245001,19.7595 C22.1751731,20.4071699 22.8674995,21.6466575 23.0015001,23.478 L32.0465001,23.478 C31.8678326,21.3339893 31.3206714,19.558507 30.4050001,18.1515 C29.4893289,16.744493 28.3391737,15.6166709 26.9545001,14.768 C25.5698265,13.9193291 23.9953423,13.3163351 22.2310001,12.959 C20.466658,12.6016649 18.6465095,12.423 16.7705001,12.423 C14.8944908,12.423 13.0631757,12.5904983 11.2765001,12.9255 C9.48982454,13.2605017 7.88184062,13.8411625 6.45250014,14.6675 C5.02315966,15.4938375 3.87300449,16.6216595 3.00200014,18.051 C2.13099578,19.4803405 1.69550014,21.3116555 1.69550014,23.545 C1.69550014,25.0636743 2.00816368,26.3478281 2.63350014,27.3975 C3.2588366,28.4471719 4.08516167,29.3181632 5.11250014,30.0105 C6.13983861,30.7028368 7.31232688,31.2611645 8.63000014,31.6855 C9.94767339,32.1098355 11.2988265,32.4783318 12.6835001,32.791 C16.0781838,33.5056702 18.7246573,34.2203298 20.6230001,34.935 C22.521343,35.6496702 23.4705001,36.7216595 23.4705001,38.151 C23.4705001,38.9996709 23.2695021,39.7031639 22.8675001,40.2615 C22.4654981,40.8198361 21.9630032,41.2664983 21.3600001,41.6015 C20.7569971,41.9365017 20.0870038,42.1821659 19.3500001,42.3385 C18.6129965,42.4948341 17.9095035,42.573 17.2395001,42.573 C16.3014954,42.573 15.3970045,42.4613344 14.5260001,42.238 C13.6549958,42.0146656 12.8845035,41.6685023 12.2145001,41.1995 C11.5444968,40.7304977 10.9973356,40.1275037 10.5730001,39.3905 C10.1486647,38.6534963 9.93650014,37.7713385 9.93650014,36.744 Z M72.9465001,48 L83.8675001,13.361 L74.0855001,13.361 L67.7205001,36.811 L67.5865001,36.811 L61.6905001,13.361 L52.4445001,13.361 L46.6825001,36.878 L46.5485001,36.878 L40.1835001,13.361 L30.1335001,13.361 L41.1215001,48 L50.9705001,48 L56.8665001,24.751 L57.0005001,24.751 L63.1645001,48 L72.9465001,48 Z M94.4735001,8.001 L94.4735001,0.162 L84.9595001,0.162 L84.9595001,8.001 L94.4735001,8.001 Z M84.9595001,13.361 L84.9595001,48 L94.4735001,48 L94.4735001,13.361 L84.9595001,13.361 Z M101.8585,19.726 L101.8585,48 L111.3725,48 L111.3725,19.726 L117.9385,19.726 L117.9385,13.361 L111.3725,13.361 L111.3725,11.284 C111.3725,9.85465952 111.651664,8.83850302 112.21,8.2355 C112.768336,7.63249698 113.69516,7.331 114.9905,7.331 C116.196506,7.331 117.357828,7.39799933 118.4745,7.532 L118.4745,0.43 C117.670496,0.38533311 116.844171,0.329500335 115.9955,0.2625 C115.146829,0.195499665 114.298171,0.162 113.4495,0.162 C109.563481,0.162 106.660176,1.14465684 104.7395,3.11 C102.818824,5.07534316 101.8585,7.59898459 101.8585,10.681 L101.8585,13.361 L96.1635,13.361 L96.1635,19.726 L101.8585,19.726 Z M133.9565,13.361 L133.9565,2.976 L124.4425,2.976 L124.4425,13.361 L117.934143,13.3621826 L117.934143,19.7255859 L124.4425,19.726 L124.4425,40.161 C124.4425,41.9030087 124.73283,43.3099946 125.3135,44.382 C125.89417,45.4540054 126.686995,46.2803304 127.692,46.861 C128.697005,47.4416696 129.858327,47.832499 131.176,48.0335 C132.493673,48.234501 133.889493,48.335 135.3635,48.335 C136.301505,48.335 137.261828,48.3126669 138.2445,48.268 C139.227172,48.2233331 140.120496,48.1340007 140.9245,48 L140.9245,40.63 C140.477831,40.7193338 140.008836,40.7863331 139.5175,40.831 C139.026164,40.8756669 138.512503,40.898 137.9765,40.898 C136.368492,40.898 135.296503,40.6300027 134.7605,40.094 C134.224497,39.5579973 133.9565,38.486008 133.9565,36.878 L133.9565,19.726 L140.9245,19.726 L140.9245,13.361 L133.9565,13.361 Z M163.945,48 L175.67,13.361 L166.223,13.361 L158.92,37.012 L158.786,37.012 L151.483,13.361 L141.5,13.361 L153.359,48 L163.945,48 Z M190.0755,39.826 C188.601493,39.826 187.373171,39.5133365 186.3905,38.888 C185.407828,38.2626635 184.615003,37.4586716 184.012,36.476 C183.408997,35.4933284 182.984668,34.3878395 182.739,33.1595 C182.493332,31.9311605 182.3705,30.6916729 182.3705,29.441 C182.3705,28.1456602 182.515665,26.9061726 182.806,25.7225 C183.096335,24.5388274 183.56533,23.4891712 184.213,22.5735 C184.86067,21.6578288 185.664662,20.9320027 186.625,20.396 C187.585338,19.8599973 188.735493,19.592 190.0755,19.592 C191.638841,19.592 192.934161,19.8823304 193.9615,20.463 C194.988838,21.0436696 195.815163,21.8253284 196.4405,22.808 C197.065836,23.7906716 197.512499,24.9184936 197.7805,26.1915 C198.048501,27.4645064 198.1825,28.8156595 198.1825,30.245 C198.1825,31.4956729 198.015002,32.6904943 197.68,33.8295 C197.344998,34.9685057 196.842503,35.9846622 196.1725,36.878 C195.502497,37.7713378 194.653838,38.4859973 193.6265,39.022 C192.599161,39.5580027 191.415507,39.826 190.0755,39.826 Z M206.871,45.789 L206.871,13.361 L197.826,13.361 L197.826,17.984 L197.692,17.984 C196.530661,15.9739899 195.090175,14.5446709 193.3705,13.696 C191.650825,12.8473291 189.652011,12.423 187.374,12.423 C184.961988,12.423 182.829176,12.8919953 180.9755,13.83 C179.121824,14.7680047 177.569673,16.0298254 176.319,17.6155 C175.068327,19.2011746 174.11917,21.0324896 173.4715,23.1095 C172.82383,25.1865104 172.5,27.3416555 172.5,29.575 C172.5,31.9423452 172.779164,34.1868227 173.3375,36.3085 C173.895836,38.4301773 174.777994,40.2838254 175.984,41.8695 C177.190006,43.4551746 178.730991,44.7058288 180.607,45.6215 C182.483009,46.5371712 184.71632,46.995 187.307,46.995 C189.406344,46.995 191.405157,46.5595044 193.3035,45.6885 C195.201843,44.8174956 196.664662,43.4663425 197.692,41.635 L197.826,41.635 L197.826,46.191 C197.870667,48.6476789 197.278839,50.679992 196.0505,52.288 C194.822161,53.896008 192.868013,54.7 190.188,54.7 C188.490658,54.7 186.99434,54.3538368 185.699,53.6615 C184.40366,52.9691632 183.532669,51.7296756 183.086,49.943 L173.639,49.943 C173.773001,51.9083432 174.320162,53.594493 175.2805,55.0015 C176.240838,56.408507 177.446826,57.5586622 178.8985,58.452 C180.350174,59.3453378 181.958158,60.0041645 183.7225,60.4285 C185.486842,60.8528355 187.217658,61.065 188.915,61.065 C192.890353,61.065 196.061655,60.5290054 198.429,59.457 C200.796345,58.3849946 202.605327,57.0785077 203.856,55.5375 C205.106673,53.9964923 205.921831,52.3326756 206.3015,50.546 C206.681169,48.7593244 206.871,47.1736736 206.871,45.789 Z" id="logo"></path>
  </defs>
</svg>
